<?xml version="1.0" encoding="UTF-8"?>
<svg id="Ebene_2" data-name="Ebene 2" xmlns="http://www.w3.org/2000/svg" viewBox="0 0 576.07 352">
  <defs>
    <style>
      .cls-1 {
        fill: #707070;
      }
    </style>
  </defs>
  <g id="Ebene_1-2" data-name="Ebene 1">
    <path class="cls-1" d="M180.55,61.5C219.75,28.5,272.65,0,336.05,0s116.3,28.5,155.5,61.5c39.1,33,66.9,72.4,81,99.8,4.7,9.2,4.7,20.1,0,29.3-14.1,27.4-41.9,66.8-81,99.8-39.2,33.1-92.1,61.6-155.5,61.6s-116.3-28.5-155.5-61.5c-16.2-13.7-30.5-28.5-42.7-43.1l-89.7,52.2c-12.5,7.3-28.4,5.3-38.7-4.9s-12.4-26-5.2-38.6l45.8-80.1L4.25,95.9c-7.2-12.6-5-28.4,5.3-38.6,10.3-10.2,26.1-12.2,38.7-4.9l89.7,52.3c12.2-14.6,26.5-29.4,42.7-43.1l-.1-.1Zm267.5,114.5c0-17.7-14.3-32-32-32s-32,14.3-32,32,14.3,32,32,32,32-14.3,32-32Z"/>
  </g>
</svg>